<svg width="24" height="25" viewBox="0 0 24 25" fill="none" xmlns="http://www.w3.org/2000/svg">
<mask id="mask0_17349_24259" style="mask-type:alpha" maskUnits="userSpaceOnUse" x="0" y="0" width="24" height="25">
<rect y="0.5" width="24" height="24" fill="#D9D9D9"/>
</mask>
<g mask="url(#mask0_17349_24259)">
<path d="M19.3008 17.0001L16.1008 13.8001C16.2341 13.5168 16.3341 13.2294 16.4008 12.9381C16.4674 12.6461 16.5008 12.3334 16.5008 12.0001C16.5008 10.7501 16.0634 9.68743 15.1888 8.8121C14.3134 7.93743 13.2508 7.5001 12.0008 7.5001C11.6674 7.5001 11.3548 7.53343 11.0628 7.6001C10.7714 7.66676 10.4841 7.76676 10.2008 7.9001L7.65078 5.3501C8.33412 5.06676 9.03411 4.8541 9.75078 4.7121C10.4674 4.57076 11.2174 4.5001 12.0008 4.5001C14.3841 4.5001 16.5258 5.1291 18.4258 6.3871C20.3258 7.64576 21.7508 9.28343 22.7008 11.3001C22.7508 11.3834 22.7841 11.4874 22.8008 11.6121C22.8174 11.7374 22.8258 11.8668 22.8258 12.0001C22.8258 12.1334 22.8134 12.2624 22.7888 12.3871C22.7634 12.5124 22.7341 12.6168 22.7008 12.7001C22.3174 13.5501 21.8384 14.3418 21.2638 15.0751C20.6884 15.8084 20.0341 16.4501 19.3008 17.0001ZM19.1008 22.4001L15.6008 18.9501C15.0174 19.1334 14.4301 19.2711 13.8388 19.3631C13.2468 19.4544 12.6341 19.5001 12.0008 19.5001C9.61745 19.5001 7.47578 18.8711 5.57578 17.6131C3.67578 16.3544 2.25078 14.7168 1.30078 12.7001C1.25078 12.6168 1.21745 12.5124 1.20078 12.3871C1.18411 12.2624 1.17578 12.1334 1.17578 12.0001C1.17578 11.8668 1.18411 11.7418 1.20078 11.6251C1.21745 11.5084 1.25078 11.4084 1.30078 11.3251C1.65078 10.5751 2.06745 9.88343 2.55078 9.2501C3.03411 8.61676 3.56745 8.03343 4.15078 7.5001L2.07578 5.4001C1.89245 5.21676 1.80078 4.98743 1.80078 4.7121C1.80078 4.43743 1.90078 4.2001 2.10078 4.0001C2.28411 3.81676 2.51745 3.7251 2.80078 3.7251C3.08411 3.7251 3.31745 3.81676 3.50078 4.0001L20.5008 21.0001C20.6841 21.1834 20.7801 21.4128 20.7888 21.6881C20.7968 21.9628 20.7008 22.2001 20.5008 22.4001C20.3174 22.5834 20.0841 22.6751 19.8008 22.6751C19.5174 22.6751 19.2841 22.5834 19.1008 22.4001ZM12.0008 16.5001C12.1841 16.5001 12.3548 16.4918 12.5128 16.4751C12.6714 16.4584 12.8424 16.4251 13.0258 16.3751L7.62578 10.9751C7.57578 11.1584 7.54245 11.3294 7.52578 11.4881C7.50911 11.6461 7.50078 11.8168 7.50078 12.0001C7.50078 13.2501 7.93811 14.3128 8.81278 15.1881C9.68811 16.0628 10.7508 16.5001 12.0008 16.5001ZM14.6508 12.3501L11.6508 9.3501C12.6008 9.2001 13.3758 9.46676 13.9758 10.1501C14.5758 10.8334 14.8008 11.5668 14.6508 12.3501Z" fill="#79757F"/>
</g>
</svg>
