<svg width="982" height="1026" viewBox="0 0 982 1026" fill="none" xmlns="http://www.w3.org/2000/svg">
<path d="M-16.4394 798.243L-177.6 1048.72L1035.18 1021.35L1196.34 770.874C1195.63 771.981 1116.71 778.56 1006.84 775.15C900.367 766.496 765.597 743.744 589.952 784.558C445.85 776.349 271.295 815.431 173.067 793.966C57.1834 799.943 24.91 733.979 -16.4394 798.243Z" fill="#5119AF"/>
<path d="M108.321 604.344L-39.3095 833.788C-57.9155 862.705 31.3457 826.764 128.433 830.003C224.991 834.063 369.191 815.49 497.439 821.675C616.6 841.984 772.495 805.234 866.445 813.348C990.758 774.306 1044.04 794.246 1034.19 809.562L1181.82 580.118C1166.8 603.454 1106.4 594.579 1014.08 583.903C927.878 563.741 773.99 597.371 645.07 592.231C517.579 584.869 381.2 591.286 276.063 600.558C174.054 604.97 109.229 602.934 108.321 604.344Z" fill="#6E1BC2"/>
<path d="M226.933 420L79.3054 649.439C60.9769 677.925 146.089 648.432 247.048 645.653C328.163 673.715 481.803 640.47 616.054 637.326C751.516 632.299 891.414 620.413 985.06 628.998C1073.36 645.929 1162.77 609.724 1152.8 625.213L1300.43 395.774C1307.99 384.029 1221.73 415.333 1132.69 399.559C1035.48 396.508 882.424 428.845 763.681 407.887C646.002 385.275 503.285 401.544 394.675 416.214C317.888 381.426 216.85 435.671 226.933 420Z" fill="#9020BA"/>
<path d="M349.625 229.314L201.995 458.758C207.583 450.073 267.936 459.06 369.737 454.972C451.149 482.572 624.312 418.985 738.743 446.645C842.614 490.716 1006.11 442.151 1107.75 438.317C1202.72 444.873 1265.01 450.827 1275.49 434.532L1423.12 205.088C1431.06 192.755 1411.2 177.959 1343.6 206.882C1306.11 227.101 1296.98 195.595 1251.17 215.422C1222.72 208.25 1173.85 227.126 1144.8 211.369C1109.45 205.412 1068.27 204.712 1020.26 212.724C977.458 212.665 930.218 217.571 886.374 217.201C838.354 223.319 786.335 235.652 749.011 227.085C709.285 222.217 649.566 250.327 627.945 223.033C588.283 223.778 542.425 237.961 520.269 221.018C486.559 222.034 451.231 231.275 429.145 227.519C384.43 220.919 349.952 228.806 349.625 229.314Z" fill="#B42FAE"/>
<path d="M481.572 24.2466L333.958 253.666C350.034 228.68 373.032 238.635 413.478 251.871C440.3 248.266 465.796 254.305 498.436 254.953C533.664 251.578 563.571 262.187 612.278 247.385C656.588 239.415 685.712 258.856 738.143 243.979C775.591 252.353 830.547 235.455 870.707 241.553C913.83 243.044 947.585 259.096 1001.31 242.17C1043.11 243.816 1105.82 211.064 1129.14 235.72C1195.3 254.685 1279.83 229.865 1327.94 231.234C1389.51 211.666 1420.44 209.263 1407.45 229.439L1555.08 0.000209465L481.572 24.2466Z" fill="#CD35A9"/>
</svg>
