<svg width="254" height="53" viewBox="0 0 254 53" fill="none" xmlns="http://www.w3.org/2000/svg">
<g clip-path="url(#clip0_12720_200473)">
<path d="M68.0754 17.8002V35.1882C68.0953 36.5291 68.6414 37.8073 69.594 38.7426C70.5465 39.6779 71.8279 40.1939 73.157 40.1775H93.889V34.7756H73.4296V18.2158H93.889V12.8139H73.157C71.8284 12.7974 70.5475 13.313 69.595 14.2477C68.6425 15.1824 68.0961 16.4598 68.0754 17.8002Z" fill="url(#paint0_linear_12720_200473)"/>
<path d="M99.4897 17.8003V30.0907C99.4897 30.0351 99.4897 29.9795 99.4897 29.9209V35.1882C99.5088 36.5294 100.055 37.8081 101.007 38.7435C101.96 39.679 103.242 40.1947 104.571 40.1775H125.3V34.7756H104.841V28.7475H121.373V23.3456H104.841V18.2158H125.3V12.8139H104.571C103.242 12.7967 101.961 13.312 101.008 14.2469C100.056 15.1817 99.5096 16.4596 99.4897 17.8003Z" fill="url(#paint1_linear_12720_200473)"/>
<path d="M152.97 34.7755H151.317L142.036 14.3851C141.821 13.9163 141.478 13.5192 141.047 13.2407C140.615 12.9623 140.114 12.8141 139.602 12.8137H133.566C132.856 12.8137 132.176 13.0983 131.674 13.6048C131.171 14.1113 130.889 14.7983 130.889 15.5147V40.1774H136.244V18.2156H137.888L147.169 38.603C147.383 39.0729 147.726 39.471 148.157 39.7501C148.589 40.0291 149.09 40.1774 149.603 40.1774H155.644C156.354 40.1774 157.035 39.8928 157.537 39.3863C158.039 38.8797 158.321 38.1927 158.321 37.4764V12.8137H152.97V34.7755Z" fill="url(#paint2_linear_12720_200473)"/>
<path d="M251.323 23.3454H230.863V18.2156H253.109V12.8137H228.189C227.479 12.8137 226.798 13.0983 226.296 13.6048C225.794 14.1113 225.512 14.7983 225.512 15.5147V26.0493C225.512 26.7656 225.794 27.4526 226.296 27.9592C226.798 28.4657 227.479 28.7502 228.189 28.7502H248.649V34.7784H225.361V40.1803H248.918C249.641 40.1803 250.328 40.1979 250.949 40.1803H251.32C251.539 40.1803 251.757 40.1528 251.97 40.0984C253.202 39.9082 254 39.3434 254 37.7164V26.0464C254 25.33 253.718 24.643 253.216 24.1365C252.714 23.63 252.033 23.3454 251.323 23.3454Z" fill="url(#paint3_linear_12720_200473)"/>
<path d="M214.575 34.7754H198.158V12.8283H192.807V29.95C192.807 29.95 192.807 29.95 192.807 29.9325V35.0505C192.803 36.4228 193.339 37.7406 194.298 38.7142C194.748 39.1751 195.284 39.5417 195.874 39.7928C196.465 40.0439 197.1 40.1746 197.741 40.1774H214.975C216.304 40.1573 217.571 39.6064 218.498 38.6453C219.425 37.6842 219.936 36.3915 219.92 35.0505V12.8108H214.575V34.7754Z" fill="url(#paint4_linear_12720_200473)"/>
<path d="M173.314 12.8137H163V18.2156H172.879V40.1774H178.233V18.2156H188.111V12.8137H173.319H173.314Z" fill="url(#paint5_linear_12720_200473)"/>
<path d="M25.7701 35.4515V52.5L0 26.5L25.7701 35.4515Z" fill="#B400DC"/>
<path d="M25.7701 0.5V35.4515L0 26.5L0.0899125 26.4093L25.7701 0.5Z" fill="#E425FC"/>
<path d="M51.5372 26.5L25.77 52.5V35.4515L51.5372 26.5Z" fill="#E71DFC"/>
<path d="M51.5372 26.5L25.77 35.4515V0.5L51.4502 26.4093L51.5372 26.5Z" fill="#FF4BFF"/>
</g>
<defs>
<linearGradient id="paint0_linear_12720_200473" x1="64.6037" y1="26.4942" x2="256.277" y2="26.4942" gradientUnits="userSpaceOnUse">
<stop stop-color="#7B54FF"/>
<stop offset="1" stop-color="#E20ECB"/>
</linearGradient>
<linearGradient id="paint1_linear_12720_200473" x1="64.6037" y1="26.4943" x2="256.277" y2="26.4943" gradientUnits="userSpaceOnUse">
<stop stop-color="#7B54FF"/>
<stop offset="1" stop-color="#E20ECB"/>
</linearGradient>
<linearGradient id="paint2_linear_12720_200473" x1="64.6036" y1="26.4941" x2="256.277" y2="26.4941" gradientUnits="userSpaceOnUse">
<stop stop-color="#7B54FF"/>
<stop offset="1" stop-color="#E20ECB"/>
</linearGradient>
<linearGradient id="paint3_linear_12720_200473" x1="64.6035" y1="26.4999" x2="256.277" y2="26.4999" gradientUnits="userSpaceOnUse">
<stop stop-color="#7B54FF"/>
<stop offset="1" stop-color="#E20ECB"/>
</linearGradient>
<linearGradient id="paint4_linear_12720_200473" x1="64.6034" y1="26.4941" x2="256.277" y2="26.4941" gradientUnits="userSpaceOnUse">
<stop stop-color="#7B54FF"/>
<stop offset="1" stop-color="#E20ECB"/>
</linearGradient>
<linearGradient id="paint5_linear_12720_200473" x1="64.6036" y1="26.4941" x2="256.277" y2="26.4941" gradientUnits="userSpaceOnUse">
<stop stop-color="#7B54FF"/>
<stop offset="1" stop-color="#E20ECB"/>
</linearGradient>
<clipPath id="clip0_12720_200473">
<rect width="254" height="52" fill="white" transform="translate(0 0.5)"/>
</clipPath>
</defs>
</svg>
